<?xml version="1.0" encoding="utf-8"?><svg version="1.1" id="Layer_1" xmlns="http://www.w3.org/2000/svg" xmlns:xlink="http://www.w3.org/1999/xlink" x="0px" y="0px" height="24px" width="24px" viewBox="0 0 122.88 122.88" style="enable-background:new 0 0 122.88 122.88" xml:space="preserve"><g><path d="M61.44,0c16.97,0,32.33,6.88,43.44,18c11.12,11.12,18,26.48,18,43.44c0,16.97-6.88,32.33-18,43.44 c-11.12,11.12-26.48,18-43.44,18c-16.97,0-32.33-6.88-43.44-18C6.88,93.77,0,78.41,0,61.44C0,44.47,6.88,29.11,18,18 C29.11,6.88,44.47,0,61.44,0L61.44,0z M64.9,77.74H39.58V66.3L64.9,36.19H77v30.78h6.3v10.77H77v9.37H64.9V77.74L64.9,77.74z M64.9,66.96V51.16L51.53,66.96H64.9L64.9,66.96z M100.75,22.13C90.69,12.07,76.79,5.85,61.44,5.85 c-15.35,0-29.25,6.22-39.31,16.28C12.07,32.19,5.85,46.09,5.85,61.44c0,15.35,6.22,29.25,16.28,39.31 c10.06,10.06,23.96,16.28,39.31,16.28c15.35,0,29.25-6.22,39.31-16.28c10.06-10.06,16.28-23.96,16.28-39.31 C117.03,46.09,110.81,32.19,100.75,22.13L100.75,22.13z"/></g></svg>